<?xml version="1.0" encoding="utf-8"?>
<!-- Generator: Adobe Illustrator 27.5.0, SVG Export Plug-In . SVG Version: 6.00 Build 0)  -->
<svg version="1.1" xmlns="http://www.w3.org/2000/svg" xmlns:xlink="http://www.w3.org/1999/xlink" x="0px" y="0px"
	 viewBox="0 0 750 500" style="enable-background:new 0 0 750 500;" xml:space="preserve">
<g id="BACKGROUND">
	<rect style="fill:#F3F3F3;" width="750" height="500"/>
</g>
<g id="OBJECTS">
	<g>
		<g>
			<path style="fill-rule:evenodd;clip-rule:evenodd;fill:#B9FF6688;" d="M661.066,393.499c-1.972-0.434-20.999-8.875-18.233-40.388
				c2.766-31.513,50.003-29.654,60.872-7.174C714.574,368.417,698.271,401.687,661.066,393.499z"/>
			<path style="fill-rule:evenodd;clip-rule:evenodd;fill:#B9FF6688;" d="M108.925,252.606c0,0-18.498,21.716-40.758-5.354
				c-22.26-27.07,12.228-55.157,33.234-49.892c21.006,5.265,22.475,30.779,17.665,38.401
				C114.255,243.383,111.275,250.354,108.925,252.606z"/>
			<path style="fill-rule:evenodd;clip-rule:evenodd;fill:#B9FF6688;" d="M645.902,41.473c0,0,26.475,1.477,38.496,33.736
				c12.022,32.259-25.689,53.738-41.243,34.535c-12.652-15.621-23.566-10.022-27.277-30.557
				C612.168,58.653,627.094,38.242,645.902,41.473z"/>
			<path style="fill-rule:evenodd;clip-rule:evenodd;fill:#B9FF6688;" d="M628.244,426.146c2.832-14.479-0.515-28.929-5.22-38.006
				c-9.798-18.902-13.403-48.818,0-54.966c13.403-6.148,48.675-26.458,54.318-72.72c5.643-46.261-2.367-135.48-85.274-164.826
				c-82.907-29.346-101.532,22.79-182.845,21.37c-81.313-1.42-93.791-65.077-174.686-73.228
				c-80.896-8.152-125.958,66.658-125.958,102.827c0,31.325,32.684,76.36,37.892,95.594c18.879,69.726-54.789,28.813-64.822,101.404
				c-4.266,30.866,15.771,62.587,32.488,82.552H628.244z"/>
		</g>
		<g>
			<g>
				<g>
					<g>
						<g>
							<path style="fill:#B9FF66;" d="M115.874,425.832c-2.726-5.505-5.147-11.169-7.863-16.684
								c-7.305-14.835-15.143-29.408-23.324-43.778c-6.573-11.545-13.383-22.954-20.395-34.237
								c-0.254-0.409-0.903-0.033-0.648,0.379c11.458,18.436,22.384,37.209,32.599,56.364c5.736,10.757,11.272,21.63,16.41,32.687
								c0.87,1.873,1.657,3.797,2.573,5.648C115.44,426.643,116.087,426.263,115.874,425.832L115.874,425.832z"/>
						</g>
					</g>
					<g>
						<g>
							<path style="fill:#B9FF66;" d="M58.895,359.769c6.674,0.519,13.349,1.038,20.023,1.557c0.961,0.075,1.922,0.149,2.882,0.224
								c0.481,0.037,0.479-0.713,0-0.75c-6.674-0.519-13.349-1.038-20.023-1.557c-0.961-0.075-1.922-0.149-2.882-0.224
								C58.414,358.981,58.416,359.731,58.895,359.769L58.895,359.769z"/>
						</g>
					</g>
					<g>
						<path style="fill:#B9FF66;" d="M66.603,348.519c0.043,1.653-1.469,3.033-3.377,3.083c-1.908,0.049-3.489-1.251-3.531-2.905
							c-0.043-1.653,1.469-3.033,3.377-3.082C64.979,345.565,66.56,346.866,66.603,348.519z"/>
						<path style="fill:#B9FF66;" d="M73.604,321.413c-0.911,1.676-3.009,2.297-4.686,1.386c-1.676-0.911-2.297-3.009-1.386-4.686
							c0.911-1.677,3.009-2.297,4.686-1.386C73.895,317.638,74.516,319.736,73.604,321.413z"/>
						<path style="fill:#B9FF66;" d="M89.532,399.427c0.053,2.061-1.831,3.78-4.209,3.842c-2.377,0.061-4.348-1.559-4.401-3.62
							c-0.053-2.061,1.831-3.781,4.209-3.842C87.508,395.746,89.479,397.366,89.532,399.427z"/>
						<path style="fill:#B9FF66;" d="M67.214,312.727c0.022,0.848-0.648,1.553-1.495,1.575c-0.848,0.022-1.553-0.648-1.575-1.496
							c-0.022-0.848,0.648-1.553,1.496-1.575C66.487,311.21,67.192,311.879,67.214,312.727z"/>
					</g>
					<path style="fill:none;stroke:#B9FF66;stroke-miterlimit:10;" d="M58.142,370.939c9.212,8.576,18.556,10.264,15.354,27.831
						c-2.853,15.652,3.962,23.819,13.168,27.995l38.979-1.005c5.008-5.877,7.932-16.275,6.48-26.165
						c-1.675-11.414-15.639-29.252-25.81-34.584c-10.171-5.333-2.767-14.077-8.366-28.249c-5.599-14.173-13.366-8.439-18.626-14.312
						c-5.26-5.872-2.163-22.219-17.836-21.893c-15.672,0.326-24.414,12.703-21.648,27.157c2.766,14.455,15.055,10.84,12.555,20.556
						C49.894,357.987,48.93,362.363,58.142,370.939z"/>
				</g>
				<g>
					<path style="fill:none;stroke:#B9FF66;stroke-miterlimit:10;" d="M186.451,268.23c14.044-19.395,17.784-56.719-13.078-59.441
						c-31.063-2.74-45.769,21.491-43.186,42.539c2.192,17.858,22.349,40.03,10.289,44.277c-12.06,4.247-23.08,15.306-9.679,37.627
						c13.401,22.322-19.381,19.349-22.814,51.305c-2.301,21.419,4.007,34.879,13.858,41.609l39.772-1.301
						c6.974-4.271,13.134-10.545,17.314-18.555c11.883-22.771-9.09-39.436-5.218-51.267c3.872-11.831,22.745-23.309,24.865-43.955
						C201.373,283.79,179.476,277.862,186.451,268.23z"/>
					<g>
						<g>
							<g>
								<path style="fill:#B9FF66;" d="M171.171,243.54c-1.275,9.123-2.62,18.237-3.994,27.346
									c-2.569,17.033-5.23,34.061-8.336,51.006c-2.371,12.933-5.048,25.811-7.733,38.681c-2.907,13.934-5.882,27.854-8.89,41.766
									c-1.082,5.004-2.169,10.007-3.261,15.009c-0.532,2.438-1.163,4.875-1.605,7.332c-0.02,0.111-0.049,0.221-0.073,0.332
									c-0.104,0.47,0.619,0.671,0.723,0.199c1.359-6.174,2.703-12.352,4.043-18.531c2.923-13.482,5.814-26.97,8.649-40.47
									c2.809-13.378,5.598-26.764,8.14-40.196c3.088-16.318,5.68-32.732,8.19-49.147c1.661-10.86,3.27-21.729,4.799-32.609
									c0.024-0.173,0.049-0.346,0.073-0.518C171.96,243.268,171.237,243.064,171.171,243.54L171.171,243.54z"/>
							</g>
						</g>
						<g>
							<g>
								<path style="fill:#B9FF66;" d="M187.695,299.248c-3.487,3.834-6.974,7.669-10.462,11.503
									c-5.563,6.116-11.125,12.232-16.688,18.348c-1.283,1.41-2.565,2.82-3.848,4.23c-0.324,0.356,0.205,0.888,0.53,0.53
									c3.487-3.834,6.974-7.669,10.462-11.503c5.563-6.116,11.125-12.232,16.688-18.348c1.283-1.41,2.565-2.82,3.848-4.23
									C188.549,299.422,188.02,298.89,187.695,299.248L187.695,299.248z"/>
							</g>
						</g>
						<g>
							<g>
								<path style="fill:#B9FF66;" d="M129.359,363.466c4.133,9.255,8.265,18.511,12.398,27.766c0.585,1.31,1.17,2.62,1.755,3.93
									c0.196,0.44,0.843,0.059,0.648-0.379c-4.133-9.255-8.265-18.511-12.398-27.766c-0.585-1.31-1.17-2.62-1.755-3.93
									C129.81,362.647,129.163,363.028,129.359,363.466L129.359,363.466z"/>
							</g>
						</g>
					</g>
					<g>
						<path style="fill:#B9FF66;" d="M189.445,314.583c3.309,4.06-1.244,8.922-5.513,5.887
							C180.624,316.41,185.177,311.548,189.445,314.583z"/>
					</g>
					<g>
						<path style="fill:#B9FF66;" d="M156.3,229.599c7.963,9.772-2.994,21.474-13.268,14.17
							C135.069,233.997,146.027,222.295,156.3,229.599z"/>
					</g>
					<g>
						<path style="fill:#B9FF66;" d="M145.117,247.969c3.37,4.135-1.267,9.088-5.615,5.997
							C136.131,249.83,140.769,244.877,145.117,247.969z"/>
					</g>
					<g>
						<path style="fill:#B9FF66;" d="M163.035,246.995c4.367,5.359-1.642,11.776-7.276,7.77
							C151.393,249.406,157.401,242.989,163.035,246.995z"/>
					</g>
				</g>
			</g>
			<g>
				<g>
					<path style="fill-rule:evenodd;clip-rule:evenodd;fill:none;stroke:#D1A2CC;stroke-miterlimit:10;" d="M603.61,227.385
						c2.469,1.286,4.722,2.885,6.719,4.733l7.179-2.556l6.747,10.65l-5.376,5.4c0.818,2.594,1.302,5.314,1.41,8.098l6.881,3.268
						l-2.761,12.301l-7.617,0.017c-1.285,2.47-2.885,4.723-4.734,6.719l2.556,7.179l-10.648,6.747l-5.401-5.376
						c-2.594,0.818-5.314,1.301-8.098,1.409l-3.267,6.881l-12.303-2.759l-0.016-7.618c-2.47-1.285-4.722-2.885-6.719-4.733
						l-7.18,2.556l-6.747-10.65l5.378-5.4c-0.818-2.594-1.301-5.314-1.41-8.097l-6.88-3.268l2.759-12.302l7.617-0.016
						c1.285-2.47,2.885-4.724,4.734-6.72l-2.556-7.179l10.649-6.747l5.401,5.377c2.594-0.818,5.314-1.301,8.098-1.41l3.267-6.88
						l12.301,2.759L603.61,227.385L603.61,227.385z M592.764,241.861c-7.287-1.635-14.522,2.948-16.157,10.237
						c-1.635,7.288,2.949,14.522,10.237,16.157c7.289,1.635,14.522-2.949,16.157-10.237
						C604.635,250.729,600.053,243.496,592.764,241.861z"/>
				</g>
				<g>
					<path style="fill-rule:evenodd;clip-rule:evenodd;fill:none;stroke:#D1A2CC;stroke-miterlimit:10;" d="M115.207,159.081
						c2.626,1.368,5.022,3.068,7.146,5.034l7.635-2.718l7.176,11.328l-5.718,5.743c0.871,2.759,1.385,5.653,1.5,8.613l7.319,3.476
						l-2.936,13.084l-8.101,0.018c-1.367,2.627-3.069,5.024-5.036,7.146l2.718,7.636l-11.326,7.176l-5.744-5.718
						c-2.76,0.87-5.653,1.383-8.613,1.498l-3.475,7.319l-13.086-2.934l-0.017-8.102c-2.628-1.367-5.023-3.068-7.146-5.035
						l-7.637,2.718l-7.177-11.327l5.72-5.744c-0.87-2.759-1.383-5.652-1.5-8.612l-7.317-3.476l2.935-13.085l8.101-0.017
						c1.367-2.627,3.069-5.024,5.035-7.147l-2.718-7.636l11.326-7.176l5.744,5.719c2.759-0.871,5.652-1.384,8.613-1.499l3.475-7.318
						l13.084,2.935L115.207,159.081L115.207,159.081z M103.671,174.478c-7.751-1.739-15.446,3.135-17.185,10.888
						c-1.739,7.752,3.137,15.446,10.888,17.185c7.753,1.739,15.446-3.136,17.185-10.888
						C116.298,183.91,111.424,176.217,103.671,174.478z"/>
				</g>
				<g>
					<path style="fill-rule:evenodd;clip-rule:evenodd;fill:none;stroke:#D1A2CC;stroke-miterlimit:10;" d="M339.794,276.621
						c2.036,1.061,3.894,2.379,5.54,3.903l5.92-2.107l5.564,8.782l-4.433,4.453c0.675,2.139,1.074,4.382,1.163,6.677l5.674,2.695
						l-2.277,10.144l-6.281,0.014c-1.06,2.037-2.379,3.895-3.904,5.541l2.107,5.92l-8.781,5.564l-4.453-4.433
						c-2.139,0.675-4.382,1.073-6.678,1.162l-2.694,5.674l-10.145-2.275l-0.013-6.282c-2.037-1.06-3.894-2.379-5.54-3.903
						l-5.921,2.107l-5.564-8.782l4.435-4.453c-0.675-2.139-1.072-4.382-1.163-6.677l-5.673-2.695l2.275-10.144l6.281-0.013
						c1.06-2.037,2.379-3.895,3.904-5.541l-2.108-5.92l8.781-5.564l4.453,4.434c2.139-0.675,4.382-1.073,6.678-1.162l2.694-5.674
						l10.144,2.275L339.794,276.621L339.794,276.621z M330.85,288.557c-6.009-1.348-11.975,2.431-13.323,8.441
						c-1.348,6.01,2.432,11.975,8.441,13.323c6.01,1.348,11.975-2.431,13.323-8.441C340.639,295.87,336.86,289.905,330.85,288.557z"
						/>
				</g>
				<g>
					<path style="fill-rule:evenodd;clip-rule:evenodd;fill:none;stroke:#D1A2CC;stroke-miterlimit:10;" d="M470.046,307.735
						c1.42,0.74,2.716,1.659,3.864,2.722l4.129-1.47l3.88,6.125l-3.092,3.106c0.471,1.492,0.749,3.057,0.811,4.657l3.958,1.88
						l-1.588,7.075l-4.381,0.01c-0.739,1.421-1.66,2.716-2.723,3.864l1.47,4.129l-6.124,3.88l-3.106-3.092
						c-1.492,0.471-3.056,0.748-4.657,0.81l-1.879,3.958l-7.076-1.587l-0.009-4.381c-1.421-0.739-2.716-1.659-3.864-2.722
						l-4.13,1.47l-3.881-6.125l3.093-3.106c-0.471-1.492-0.748-3.056-0.811-4.657l-3.957-1.879l1.587-7.075l4.381-0.009
						c0.739-1.421,1.659-2.717,2.723-3.865l-1.47-4.129l6.124-3.88l3.106,3.092c1.492-0.471,3.056-0.748,4.658-0.811l1.879-3.957
						l7.075,1.587L470.046,307.735L470.046,307.735z M463.808,316.061c-4.191-0.94-8.352,1.695-9.292,5.888
						c-0.94,4.192,1.696,8.352,5.887,9.292c4.192,0.94,8.352-1.696,9.292-5.887C470.635,321.161,468,317.001,463.808,316.061z"/>
				</g>
				<g>
					<path style="fill-rule:evenodd;clip-rule:evenodd;fill:none;stroke:#D1A2CC;stroke-miterlimit:10;" d="M699.832,300.863
						c1.694,0.883,3.24,1.979,4.61,3.247l4.925-1.753l4.629,7.307l-3.689,3.705c0.562,1.78,0.893,3.646,0.968,5.556l4.721,2.242
						l-1.894,8.44l-5.226,0.012c-0.882,1.695-1.98,3.24-3.248,4.61l1.753,4.926l-7.306,4.629l-3.705-3.689
						c-1.78,0.561-3.646,0.892-5.556,0.967l-2.242,4.721l-8.441-1.893l-0.011-5.226c-1.695-0.882-3.24-1.979-4.61-3.248
						l-4.926,1.753l-4.629-7.307l3.69-3.705c-0.561-1.78-0.892-3.646-0.967-5.556l-4.72-2.242l1.893-8.44l5.226-0.011
						c0.882-1.695,1.98-3.241,3.248-4.611l-1.754-4.926l7.306-4.629l3.705,3.689c1.78-0.562,3.646-0.893,5.556-0.967l2.242-4.721
						l8.44,1.893L699.832,300.863L699.832,300.863z M692.39,310.795c-5-1.121-9.964,2.022-11.085,7.023
						c-1.122,5,2.023,9.963,7.023,11.085c5.001,1.122,9.964-2.023,11.085-7.023C700.535,316.879,697.391,311.917,692.39,310.795z"/>
				</g>
			</g>
		</g>
		<line style="fill:none;stroke:#231F20;stroke-miterlimit:10;" x1="70.941" y1="426.617" x2="697.035" y2="426.617"/>
		<g>
			<g>
				<defs>
					<polygon id="SVGID_1_" points="70.941,426.617 380.177,426.617 400.362,411.514 392.173,79.42 212.67,53.42 49.48,91.752 					
						"/>
				</defs>
				<clipPath id="SVGID_00000003823646698506665260000007734062611917610662_">
					<use xlink:href="#SVGID_1_"  style="overflow:visible;"/>
				</clipPath>
				<g style="clip-path:url(#SVGID_00000003823646698506665260000007734062611917610662_);">
					<g>
						<g>
							<path style="fill:#EE8E01;stroke:#000000;stroke-miterlimit:10;" d="M168.87,273.414c0,0-14.396,4.19-20.461,10.974
								c-6.065,6.784-30.849,62.394-33.676,69.457c-2.827,7.063-6.996,37.86-6.077,41.123c0.919,3.263,5.079,15.643,8.905,19.295
								c3.825,3.652,14.584,3.971,14.584,3.971l43.949-139.262L168.87,273.414z"/>
							<line style="fill:#EE8E01;stroke:#000000;stroke-miterlimit:10;" x1="114.26" y1="355.122" x2="136.73" y2="367.467"/>
						</g>
						<g>
							<g>
								<path style="fill:#6040EC;" d="M252.5,221.21c0,0,23.862,28.793,37.155,49.643c13.293,20.85,91.902,138.908,90.504,146.862
									c-1.399,7.954-8.169,13.105-18.697,18.118c-10.528,5.013-88.781-31.289-112.878-93.033
									C224.487,281.056,252.5,221.21,252.5,221.21z"/>
								<g>
									<g>
										<path style="fill:#FFFFFF;" d="M245.558,251.838c6.775,6.236,15.981,10.306,25.292,9.909
											c3.872-0.165,7.628-1.106,11.418-1.834c-0.646-0.915-1.299-1.833-1.958-2.751c-4.186,0.811-8.322,1.677-12.629,1.402
											c-4.617-0.295-9.154-1.744-13.199-3.964c-3.894-2.137-7.346-5.02-10.299-8.365c-0.275,1.107-0.546,2.244-0.813,3.41
											C244.07,250.401,244.796,251.136,245.558,251.838z"/>
										<path style="fill:#FFFFFF;" d="M296.149,280.879c-0.368,0.29-0.741,0.57-1.117,0.837
											c-3.59,2.551-7.509,4.625-11.182,7.056c-3.723,2.464-7.332,5.099-10.814,7.893c-6.953,5.576-13.375,11.837-18.968,18.783
											c-3.671,4.558-6.953,9.406-9.782,14.488c0.37,1.314,0.755,2.63,1.169,3.95c2.579-4.993,5.612-9.772,9.024-14.283
											c5.334-7.051,11.588-13.414,18.349-19.1c3.38-2.843,6.903-5.51,10.542-8.013c3.652-2.512,7.486-4.71,11.207-7.11
											c1.05-0.677,2.089-1.403,3.087-2.18C297.143,282.403,296.635,281.625,296.149,280.879z"/>
									</g>
									<path style="fill:#FFFFFF;" d="M310.093,302.232c-3.05,5.74-5.644,11.731-7.715,17.911
										c-8.411,25.094-8.383,53.133-0.529,78.37c1.491,4.791,3.316,9.517,5.597,14c1.832,1.282,3.657,2.514,5.47,3.698
										c-2.828-4.679-5.105-9.644-6.902-14.808c-4.144-11.911-6.256-24.604-6.63-37.193c-0.603-20.33,3.688-40.612,12.877-58.655
										C311.528,304.433,310.805,303.324,310.093,302.232z"/>
									<g>
										<path style="fill:#FFFFFF;" d="M357.956,376.983c-3.659,1.635-6.925,4.192-10.276,6.355
											c-4.292,2.771-9.477,5.194-14.494,2.773c-9.873-4.766-10.188-18.614-8.691-27.95c1.203-7.505,4.115-14.614,8.346-20.857
											c-0.679-1.055-1.358-2.109-2.035-3.161c-4.058,5.348-7.035,11.516-8.81,18.012c-1.396,5.108-2.033,10.449-1.8,15.742
											c0.245,5.573,1.374,11.458,4.784,16.017c3.089,4.13,7.856,7.135,13.151,6.931c5.778-0.223,10.611-3.713,15.201-6.858
											c1.991-1.364,4.235-2.818,6.602-3.795C359.284,379.135,358.626,378.066,357.956,376.983z"/>
										<path style="fill:#FFFFFF;" d="M380.158,417.715c0.104-0.594-0.246-1.812-0.972-3.545
											c-0.104,2.759-0.32,5.515-0.648,8.259C379.306,420.965,379.861,419.406,380.158,417.715z"/>
									</g>
								</g>
								<path style="fill:none;stroke:#0F110E;stroke-miterlimit:10;" d="M252.5,221.21c0,0,23.862,28.793,37.155,49.643
									c13.293,20.85,91.902,138.908,90.504,146.862c-1.399,7.954-8.169,13.105-18.697,18.118
									c-10.528,5.013-88.781-31.289-112.878-93.033C224.487,281.056,252.5,221.21,252.5,221.21z"/>
							</g>
							<g>
								<path style="fill:#EE8E01;stroke:#0F110E;stroke-miterlimit:10;" d="M281.705,254.401c0,0,8.915,13.318,9.941,16.087
									c1.375,3.71-8.228,35.807-8.228,35.807l-8.237-16.906l5.891-28.219c0,0-0.235-6.26-4.187-9.523
									C276.886,251.648,279.926,251.648,281.705,254.401z"/>
							</g>
						</g>
						<path style="fill:#6040EC;" d="M299.54,461.979l-8.699-93.781c-6.281-94.788-16.484-147.143-48.042-152.787
							c0,0-42.599,4.962-57.424,40.259c-7.826,18.631-36.324,107.787-56.625,175.761L299.54,461.979z"/>
						<g>
							<path style="fill:#FFFFFF;" d="M173.422,439.421c5.822-6.313,9.924-14.236,11.594-23.186
								c1.843-9.878,0.512-19.824-3.412-29.032c-4.001-9.388-10.012-17.717-14.516-26.846c-5.68-11.514-8.12-24.728,2.057-34.482
								c9.208-8.825,22.266-10.262,34.383-11.248c21.737-1.769,42.575-6.83,60.592-19.7c6.318-4.513,12.037-9.824,16.979-15.76
								c-0.171-0.908-0.345-1.809-0.521-2.698c-4.829,6.108-10.497,11.587-16.849,16.24c-9.036,6.619-19.234,11.577-29.925,14.882
								c-11.067,3.422-22.31,4.419-33.78,5.502c-15.928,1.505-37.916,7.209-40.012,26.455
								c-2.237,20.543,16.637,36.729,21.887,55.335c4.54,16.09-0.327,32.514-10.871,44.11L173.422,439.421z"/>
							<path style="fill:#FFFFFF;" d="M219.025,267.101c13.421-0.98,20.625-12.268,28.333-21.751
								c5.051-6.215,10.333-11.482,16.363-15.679c-0.278-0.391-0.561-0.771-0.845-1.146c-11.673,9.209-20.387,23.399-32.312,31.657
								c-4.875,3.375-11.112,5.324-17.012,3.776c-7.69-2.019-10.395-9.374-10.929-16.574c-0.369-4.97-0.192-9.995,0.433-14.979
								c-1.053,0.852-2.092,1.748-3.112,2.685C197.978,251.921,200.931,268.423,219.025,267.101z"/>
							<path style="fill:#FFFFFF;" d="M293.438,396.201c-11.509,2.284-23.926-0.591-34.268-5.727
								c-12.215-6.066-23.812-16.633-24.103-31.244c-0.311-15.651,14.319-23.825,26.796-29.338
								c8.514-3.762,17.035-7.489,24.68-12.689c-0.074-0.68-0.148-1.36-0.224-2.033c-6.132,3.913-12.696,7.103-19.418,9.863
								c-6.82,2.8-13.879,5.263-20.038,9.407c-10.039,6.755-16.452,17.214-14.219,29.584c2.388,13.225,12.9,22.769,24.395,28.625
								c11.477,5.847,24.364,8.804,36.583,5.524L293.438,396.201z"/>
							<path style="fill:#FFFFFF;" d="M297.909,444.394c-1.617-0.089-3.256-0.279-4.92-0.595
								c-7.739-1.469-14.628-5.391-19.338-11.767c-4.156-5.625-6.919-12.169-10.702-18.038
								c-6.657-10.328-16.596-19.567-29.655-19.178c-13.745,0.41-24.708,9.819-32.751,20.154c-5.985,7.691-12.241,16.993-13.98,26.8
								l1.952,0.349c1.962-10.716,9.006-20.665,15.985-28.855c9.698-11.383,25.334-21.207,40.419-13.902
								c13.531,6.552,18.096,20.915,25.993,32.506c6.278,9.214,16.204,14.155,27.202,14.736L297.909,444.394z"/>
							<path style="fill:#FFFFFF;" d="M152.369,433.589c-0.438,0.603-0.852,1.221-1.262,1.84l2.808,0.502
								c1.513-2.024,3.118-3.977,4.598-6.06c4.462-6.277,4.234-13.104,0.795-19.844c-3.313-6.49-8.099-12.579-15.579-14.043
								c-1.33-0.26-2.689-0.444-4.066-0.576c-0.162,0.529-0.324,1.057-0.486,1.586c2.933,0.463,5.715,1.239,8.162,2.479
								c7.632,3.867,14.421,16.754,11.191,24.971C157.169,427.904,154.527,430.62,152.369,433.589z"/>
						</g>
						<g>
							<path style="fill:none;stroke:#0F110E;stroke-miterlimit:10;" d="M299.54,461.979l-8.699-93.781
								c-6.281-94.788-16.484-147.143-48.042-152.787c0,0-42.599,4.962-57.424,40.259c-7.607,18.11-36.74,109.282-56.625,175.761
								L299.54,461.979z"/>
						</g>
					</g>
					<g>
						<g>
							
								<rect x="176.584" y="313.135" transform="matrix(0.9003 0.4353 -0.4353 0.9003 180.6706 -56.0662)" style="fill:#BCB9BD;stroke:#0F110E;stroke-miterlimit:10;" width="72.265" height="106.401"/>
							<path style="fill:#928C96;stroke:#231F20;stroke-miterlimit:10;" d="M252.222,320.677l-5.764-2.592
								c1.458-4.077-0.626-8.746-4.883-10.66c-4.257-1.914-9.133-0.374-11.215,3.422l-5.764-2.591
								c-2.407-1.082-5.235-0.008-6.317,2.398l-0.513,1.141c-1.082,2.407-0.008,5.235,2.398,6.317l27.625,12.421
								c2.407,1.082,5.235,0.008,6.317-2.398l0.513-1.141C255.702,324.587,254.628,321.759,252.222,320.677z M240.021,310.881
								c2.229,1.002,3.35,3.384,2.738,5.541l-8.701-3.912C235.267,310.621,237.793,309.879,240.021,310.881z"/>
						</g>
						<g>
							<g>
								<path style="fill:#AA6E4E;" d="M186.779,388.89l-15.045-6.372l12.515-24.94l21.894,10.466c0,0,7.223-1.847,10.978-2.047
									c3.755-0.2,12.959,0.119,15.305,0.29c2.347,0.171,4.786,0.808,5.858,2.383c1.072,1.575,0.634,2.617-0.93,3.179
									c-1.564,0.562-6.974,0.94-8.654,1.147c-1.68,0.207-4.223,1.003-3.461,2.555c0.763,1.552,4.307,6.445,11.505,7.338
									s12.431-0.605,13.838-0.413c1.408,0.192,3.592,0.954,3.336,2.573c-0.257,1.619-0.814,1.63-0.814,1.63
									s-0.673,1.762-0.631,2.907c0.042,1.145-0.926,2.639-1.871,3.341c-0.945,0.701-1.416,0.785-1.416,0.785
									s-1.367,2.722-2.04,3.504c-0.672,0.782-2.811,2.629-2.811,2.629s-2.482,1.891-2.98,2.681
									c-0.497,0.79-5.954,3.745-7.994,3.929c-2.04,0.184-11.75-0.001-18.456-3.278C208.199,399.897,186.779,388.89,186.779,388.89
									z"/>
								<g>
									<g>
										<g>
											<path style="fill:#0F110E;" d="M226.313,388.937c3.566,1.801,7.359,3.22,11.358,3.618
												c4.008,0.399,7.734-0.504,11.323-2.259c1.87-0.914,4.649-2.306,5.062-4.614c0.286-1.596-0.721-3.258-2.311-3.597
												c-1.162-0.248-2.415-0.079-3.579,0.056c-1.676,0.195-3.344,0.452-5.027,0.582c-4.087,0.315-7.927-0.43-11.617-2.224
												c-1.478-0.718-2.929-1.58-4.151-2.689c-0.765-0.694-1.778-1.697-1.832-2.806c-0.083-1.713,3.147-1.52,4.25-1.577
												c2.674-0.137,9.465,0.42,9.196-3.804c-0.13-2.041-1.709-3.24-3.611-3.583c-0.571-0.103-1.129-0.095-1.702-0.124
												c-1.855-0.095-3.71-0.376-5.568-0.488c-5.762-0.348-11.619-0.199-17.296,0.929c-1.32,0.262-2.622,0.593-3.915,0.967
												c-0.255,0.074-0.557,0.215-0.825,0.227c0.164-0.007,0.085-0.007-0.076-0.052c-0.187-0.053-0.369-0.132-0.549-0.203
												c-3.574-1.412-7.017-3.243-10.463-4.936c-3.308-1.625-6.607-3.267-9.899-4.923c-0.193-0.097-0.386-0.194-0.58-0.292
												c-0.229-0.116-0.557-0.074-0.684,0.179c-3.654,7.281-7.307,14.563-10.961,21.844c-0.518,1.032-1.036,2.064-1.554,3.096
												c-0.114,0.227-0.076,0.561,0.179,0.684c7.182,3.472,14.367,6.935,21.557,10.389c5.035,2.419,10.071,4.835,15.117,7.23
												c3.899,1.85,7.733,3.781,11.921,4.909c3.871,1.042,8.142,1.927,12.174,1.619c3.817-0.292,8.07-2.737,10.457-5.712
												c0.399-0.497-0.304-1.209-0.707-0.707c-2.274,2.835-6.344,5.223-10,5.435c-3.593,0.208-7.304-0.501-10.773-1.37
												c-4.317-1.081-8.207-2.97-12.201-4.864c-9.726-4.611-19.42-9.291-29.116-13.967c-2.642-1.274-5.284-2.549-7.925-3.826
												c0.06,0.228,0.12,0.456,0.179,0.684c3.654-7.281,7.307-14.563,10.961-21.844c0.518-1.032,1.036-2.064,1.554-3.096
												c-0.228,0.06-0.456,0.12-0.684,0.179c6.091,3.073,12.19,6.15,18.381,9.016c1.059,0.49,2.158,1.098,3.285,1.418
												c0.574,0.163,1.023-0.017,1.583-0.179c3.473-1.006,7.037-1.575,10.642-1.826c3.328-0.232,6.671-0.215,10-0.022
												c1.918,0.111,3.84,0.427,5.756,0.502c0.526,0.02,1.03,0.006,1.554,0.104c0.949,0.178,1.951,0.575,2.454,1.453
												c0.458,0.797,0.562,2.03-0.175,2.687c-1.375,1.225-4.037,1.099-5.741,1.18c-2.192,0.104-8.414-0.344-7,3.586
												c0.789,2.192,3.189,3.753,5.117,4.829c3.008,1.68,6.438,2.86,9.892,3.033c3.252,0.163,6.413-0.526,9.637-0.77
												c0.935-0.071,2.363-0.247,3.084,0.504c0.581,0.604,0.795,1.622,0.489,2.396c-0.446,1.129-1.653,1.921-2.639,2.523
												c-1.691,1.034-3.574,1.908-5.471,2.48c-3.943,1.189-8.121,0.816-12.016-0.372c-2.08-0.635-4.074-1.496-6.013-2.476
												C226.245,387.784,225.738,388.647,226.313,388.937L226.313,388.937z"/>
										</g>
									</g>
									<g>
										<g>
											<path style="fill:#0F110E;" d="M226.22,395.659c5.186,2.555,11.123,2.885,16.602,1.23
												c2.662-0.805,5.636-1.599,7.847-3.372c1.895-1.519,2.526-3.661,2.25-6.026c-0.074-0.632-1.075-0.639-1,0
												c0.278,2.38-0.426,4.339-2.469,5.68c-2.281,1.497-5.066,2.211-7.652,2.982c-4.888,1.457-10.479,0.907-15.073-1.356
												C226.15,394.512,225.642,395.374,226.22,395.659L226.22,395.659z"/>
										</g>
									</g>
									<g>
										<g>
											<path style="fill:#0F110E;" d="M224.146,400.817c4.104,1.802,9.045,2.957,13.514,2.263
												c2.901-0.451,5.711-1.721,7.966-3.6c1.526-1.271,3.131-3.062,3.44-5.104c0.095-0.63-0.868-0.901-0.964-0.266
												c-0.285,1.886-1.768,3.493-3.182,4.662c-2.271,1.879-5.188,3.12-8.123,3.416c-4.033,0.406-8.447-0.612-12.146-2.236
												C224.067,399.697,223.557,400.559,224.146,400.817L224.146,400.817z"/>
										</g>
									</g>
								</g>
							</g>
							<g>
								<g>
									<path style="fill:#6040EC;" d="M217.546,268.987l18.965-44.585l-8.689-12.08c0,0-138.62,36.931-148.566,109.272
										c-0.622,4.521-0.768,8.517-0.548,12.458c3.292,59.122,96.091,54.733,96.091,54.733l15.67-34.743l-33.449-26.201
										C188.744,283.128,217.546,268.987,217.546,268.987z"/>
									<g>
										<path style="fill:#FFFFFF;" d="M219.957,264.363c-2.126,0.25-4.288,0.151-6.406-0.405
											c-7.69-2.019-10.395-9.374-10.929-16.574c-0.693-9.336,0.519-18.865,3.076-27.955c-0.962,0.326-1.945,0.663-2.965,1.017
											c-5.174,20.083-7.185,48.37,16.291,46.655c0.249-0.018,0.491-0.047,0.735-0.072L219.957,264.363z"/>
										<g>
											<path style="fill:#FFFFFF;" d="M78.666,328.118c5.141-1.03,10.164-3.751,14.052-6.761
												c8.088-6.262,12.735-15.227,14.652-25.152c1.542-7.985,1.745-16.721,2.315-25.351c-0.957,0.858-1.9,1.726-2.827,2.604
												c-0.965,10.419-1.511,21.02-5.516,30.737c-2.64,6.406-6.924,11.969-12.668,15.888c-2.819,1.923-6.242,3.764-9.787,4.741
												C78.783,325.946,78.71,327.042,78.666,328.118z"/>
											<path style="fill:#FFFFFF;" d="M166.06,334.922c-5.211,1.259-10.375,2.627-14.65,6.503
												c-6.796,6.163-9.624,15.243-8.069,24.199c1.318,7.586,4.811,14.644,5.617,21.915c1.331,0.16,2.632,0.302,3.899,0.427
												c-0.327-4.971-1.765-9.948-3.464-15.015c-1.879-5.602-3.65-11.392-2.348-17.325c1.332-6.068,5.268-11.65,10.758-14.638
												c3.474-1.89,7.361-2.819,11.238-3.73L166.06,334.922z"/>
											<path style="fill:#FFFFFF;" d="M185.348,230.96c1.004-1.793,2.069-3.556,3.196-5.278
												c-1.148,0.448-2.315,0.91-3.496,1.384c-2.721,4.74-5.047,9.721-7.146,14.737c-4.21,10.06-8.981,20.696-8.42,31.854
												c0.225,4.474,1.315,8.831,3.436,12.792c2.461,4.596,6.163,8.351,9.073,12.642c0.904-0.834,1.8-1.639,2.685-2.417
												c-1.434-2.011-3.004-3.936-4.541-5.895c-5.164-6.581-7.887-13.342-7.287-21.819
												C173.767,255.945,179.014,242.272,185.348,230.96z"/>
											<path style="fill:#FFFFFF;" d="M119.71,351.219c6.436-6.327,13.875-13.079,14.942-22.616
												c0.575-5.138-1.249-9.869-2.524-14.762c-2.052-7.876,0.24-14.301,4.949-20.591c6.892-9.207,15.895-16.626,22.257-26.269
												c5.887-8.924,8.592-21.37,5.074-30.916c-0.697,0.33-1.396,0.664-2.096,1.002c4.085,10.425-0.808,22.586-7.055,31.131
												c-6.744,9.225-15.688,16.802-21.519,26.714c-2.437,4.143-4.251,8.738-4.008,13.62c0.293,5.889,3.262,11.367,3.212,17.295
												c-0.099,11.727-11.018,20.971-18.212,29.071c-4.824,5.432-9.207,11.482-12.085,18.163
												c0.311,0.194,0.627,0.381,0.941,0.57C107.052,365.091,113.259,357.561,119.71,351.219z"/>
										</g>
										<path style="fill:#FFFFFF;" d="M95.636,332.879c-6.118-1.175-11.874,1.935-16.407,6.197
											c0.175,1.159,0.39,2.289,0.637,3.396c6.586-6.388,17.538-11.607,21.295-0.031c2.992,9.22-1.077,17.354-5.592,25.484
											c0.389,0.328,0.778,0.655,1.175,0.973c2.524-4.287,5.029-8.581,6.58-13.121
											C105.983,347.996,106.017,334.873,95.636,332.879z"/>
									</g>
								</g>
								<g>
									<line style="fill:none;stroke:#0F110E;stroke-miterlimit:10;" x1="190.469" y1="354.042" x2="142.053" y2="316.117"/>
									<path style="fill:none;stroke:#0F110E;stroke-miterlimit:10;" d="M157.02,327.841c0,0,15.773-19.547,31.987-34.819
										c0,0,10.932-9.872,15.534-12.747"/>
								</g>
								<g>
									<path style="fill:#FFFFFF;stroke:#0F110E;stroke-miterlimit:10;" d="M156.67,388.188
										c11.35,2.013,21.846,3.339,21.846,3.339l17.03-33.51L176.117,342.8L156.67,388.188z"/>
									<line style="fill:none;stroke:#0F110E;stroke-miterlimit:10;" x1="159.424" y1="381.76" x2="180.184" y2="387.638"/>
									<line style="fill:none;stroke:#0F110E;stroke-miterlimit:10;" x1="163.283" y1="372.753" x2="184.589" y2="379.577"/>
									<line style="fill:none;stroke:#0F110E;stroke-miterlimit:10;" x1="167.502" y1="362.905" x2="188.697" y2="371.494"/>
									<line style="fill:none;stroke:#0F110E;stroke-miterlimit:10;" x1="172.409" y1="351.454" x2="193.2" y2="362.633"/>
								</g>
							</g>
							<path style="fill:none;stroke:#0F110E;stroke-miterlimit:10;" d="M225.515,212.967c0,0-71.116,20.355-108.439,51.663
								c-40.176,33.701-48.498,71.074-26.98,96.538s72.698,28.058,72.698,28.058"/>
						</g>
						<path style="fill:#EE8E01;stroke:#000000;stroke-miterlimit:10;" d="M200.527,221.247c0,0,2.901-5.087,8.82-5.962
							c5.919-0.876,10.031,0.222,10.859,4.564c0.828,4.342,6.833,40.153-11.48,66.719c-18.313,26.565-45.774,34.045-45.774,34.045
							s10.022-10.554,16.765-18.377c6.138-7.122,13.647-16.405,17.774-27.035c13.366-34.425,12.401-52.095,10.537-56.662
							L200.527,221.247z"/>
					</g>
					<g>
						<g>
							<path style="fill:#AA6E4E;stroke:#0F110E;stroke-miterlimit:10;" d="M235.537,153.389c2.714,0.485,5.061,1.801,6.848,3.627
								l1.338-7.482c2.122-11.861,12.381-20.041,22.799-18.178l15.669,2.803c10.418,1.863,17.206,13.092,15.084,24.953l-4.345,24.29
								c-2.121,11.861-12.381,20.041-22.799,18.178l-9.06-1.621l-2.34,13.085c-0.96,5.366-6.135,8.971-11.5,8.011l-6.216-1.112
								c-5.365-0.96-8.97-6.135-8.01-11.501l2.645-14.786l0.147-0.824l2.645-14.787c0.053-0.298,0.132-0.584,0.212-0.868
								c-2.275,1.043-4.883,1.435-7.542,0.959c-6.89-1.232-11.484-7.771-10.262-14.605
								C222.071,156.698,228.648,152.157,235.537,153.389z"/>
							<g>
								<g>
									<path style="fill:#0F110E;" d="M240.286,168.744c0.719-2.929-0.07-6.412-2.644-8.177c-1.35-0.925-2.999-1.284-4.607-1.404
										c-0.674-0.05-0.671,1,0,1.05c2.272,0.168,4.583,0.985,5.702,3.105c0.695,1.318,0.821,2.804,0.677,4.267
										c-0.007,0.074-0.016,0.147-0.024,0.221c-0.017,0.154,0.011-0.066-0.01,0.075c-0.016,0.105-0.032,0.21-0.051,0.315
										c-0.017,0.09-0.034,0.181-0.055,0.27C239.113,169.121,240.125,169.401,240.286,168.744L240.286,168.744z"/>
								</g>
							</g>
							<g>
								<g>
									<path style="fill:#0F110E;" d="M264.499,161.44c-0.349,1.951,0.949,3.815,2.9,4.164c1.951,0.349,3.815-0.95,4.164-2.9
										c0.349-1.951-0.95-3.815-2.9-4.164C266.712,158.191,264.848,159.489,264.499,161.44z"/>
									<path style="fill:#0F110E;" d="M287.716,165.058c-0.298,1.665,0.811,3.257,2.475,3.555
										c1.665,0.298,3.257-0.811,3.554-2.476c0.298-1.665-0.81-3.256-2.476-3.554
										C289.605,162.285,288.014,163.394,287.716,165.058z"/>
								</g>
								<polygon style="fill:#823A20;" points="280.456,160.649 277.32,173.633 284.271,170.935 								"/>
							</g>
							<path style="fill:#0F110E;" d="M241.676,119.068c15.012-10.552,33.629-8.275,48.945,5.095
								c15.316,13.369,11.919,30.172,10.469,32.394c-0.86,1.318-1.902,2.24-3.772,2.281c-1.619-0.084-4.235-0.85-8.807-2.712
								c-13.166-5.362-19.704-18.768-19.704-18.768s0.78,2.346-5.652,11.424c-4.826,6.81-14.532,9.816-19.41,10.904
								c-1.392-1.593-1.767-2.012-2.453-2.701l0.33-0.208c-1.822-1.506-3.796-2.978-5.954-3.364
								c-2.955-0.529-5.912-0.429-8.385,0.85C225.018,146.903,227.859,128.781,241.676,119.068z"/>
							<g>
								<g>
									<path style="fill:#0F110E;" d="M282.101,183.488c-0.529,2.742-3.143,4.7-5.948,4.202c-2.777-0.493-4.66-3.169-4.202-5.948
										c-0.154,0.087-0.307,0.175-0.461,0.262c3.167,0.567,6.334,1.133,9.501,1.699c0.457,0.082,0.915,0.164,1.372,0.245
										c0.472,0.084,0.674-0.638,0.199-0.723c-3.167-0.566-6.334-1.133-9.501-1.699c-0.457-0.082-0.915-0.164-1.372-0.245
										c-0.183-0.033-0.426,0.048-0.461,0.262c-0.396,2.406,0.642,4.848,2.752,6.123c2.107,1.274,4.845,1.069,6.756-0.469
										c1.095-0.881,1.823-2.134,2.088-3.51C282.915,183.216,282.193,183.014,282.101,183.488z"/>
								</g>
							</g>
							<circle style="fill:#EE8E01;" cx="229.036" cy="118.62" r="6.187"/>
							<path style="fill:none;stroke:#0F110E;stroke-miterlimit:10;" d="M189.797,122.343c0,0,18.899,6.811,28.9-9.91
								c17.169-28.707-26.628-53.257-46.227-31.172c-18.229,20.541-20.977,8.407-43.092,12.282
								c-22.115,3.875-46.409,33.731-24.224,61.46c22.184,27.73,64.183,16.227,67.317-7.601
								C174.482,132.105,180.139,120.529,189.797,122.343z"/>
						</g>
						<path style="fill:#FFFFFF;stroke:#0F110E;stroke-miterlimit:10;" d="M254.35,225.703l-22.463-4.246
							c-4.264-0.806-7.068-4.917-6.262-9.181l0.801-4.24c0.806-4.264,4.917-7.068,9.181-6.262l22.463,4.246
							c4.264,0.806,7.068,4.917,6.262,9.181l-0.802,4.24C262.725,223.706,258.615,226.509,254.35,225.703z"/>
					</g>
				</g>
			</g>
			<g>
				<g>
					<g>
						<g>
							<polygon style="fill:#FFFFFF;stroke:#231F20;stroke-miterlimit:10;" points="366.334,272.472 385.67,320.426 
								410.039,312.753 401.412,280.901 393.558,256.868 369.845,258.48 							"/>
							<path style="fill:#FFFFFF;stroke:#231F20;stroke-miterlimit:10;" d="M360.012,241.194c0,0-14.041-8.636-17.081-6.777
								c-3.04,1.859-1.16,5.381,2.952,8.74c4.111,3.359,10.481,6.777,10.481,6.777L360.012,241.194z"/>
							<g>
								<g>
									<path style="fill:#231F20;" d="M364.58,278.039l28.713-9.968c1.232-0.428,1.884-1.773,1.457-3.006l-20.589-59.304
										c-0.428-1.232-1.774-1.884-3.006-1.457l-28.713,9.968c-1.232,0.428-1.884,1.773-1.456,3.006l20.589,59.304
										C362.002,277.815,363.348,278.467,364.58,278.039z"/>
									<g>
										
											<rect x="352.994" y="215.687" transform="matrix(-0.9447 0.328 -0.328 -0.9447 794.7098 348.763)" style="fill:#FFFFFF;" width="29.903" height="51.418"/>
										<g>
											<g>
												
													<rect x="351.511" y="221.379" transform="matrix(-0.9447 0.328 -0.328 -0.9447 780.7444 323.7632)" style="fill:#BCB9BD;" width="23.12" height="12.678"/>
											</g>
											<g>
												
													<rect x="359.581" y="244.13" transform="matrix(-0.9447 0.328 -0.328 -0.9447 803.9 365.362)" style="fill:#BCB9BD;" width="23.12" height="12.678"/>
											</g>
											<g>
												
													<rect x="354.466" y="234.868" transform="matrix(-0.9447 0.328 -0.328 -0.9447 789.0467 338.8046)" style="fill:#BCB9BD;" width="22.974" height="2.142"/>
												
													<rect x="362.871" y="259.246" transform="matrix(-0.9447 0.328 -0.328 -0.9447 806.5014 384.6199)" style="fill:#BCB9BD;" width="15.894" height="2.142"/>
												
													<rect x="356.07" y="240.363" transform="matrix(-0.9447 0.328 -0.328 -0.9447 783.862 350.6677)" style="fill:#BCB9BD;" width="12.581" height="2.142"/>
											</g>
										</g>
										<g>
											<path style="fill:#928C96;" d="M353.133,215.266c0.144,0.414,0.596,0.633,1.009,0.489
												c0.414-0.144,0.633-0.596,0.489-1.01c-0.144-0.414-0.596-0.633-1.009-0.489
												C353.208,214.4,352.99,214.852,353.133,215.266z"/>
											<g>
												<path style="fill:#928C96;" d="M356.354,214.815l4.217-1.464c0.329-0.114,0.503-0.473,0.389-0.803l0,0
													c-0.114-0.329-0.473-0.503-0.802-0.389l-4.217,1.464c-0.329,0.114-0.503,0.473-0.389,0.802l0,0
													C355.666,214.755,356.026,214.929,356.354,214.815z"/>
											</g>
										</g>
									</g>
								</g>
							</g>
							<g>
								<path style="fill:#FFFFFF;" d="M396.786,317.427l19.647-7.449l-15.355-43.185c0,0-6.262-22.004-9.37-23.948
									c-3.109-1.945-18.462-3.807-20.142-1.089c-2.427,3.926,2.404,6.478,5.066,8.155c2.663,1.678,6.735,3.192,6.735,3.192
									s-4.066,9.79,0.683,24.665L396.786,317.427z"/>
								<path style="fill:none;stroke:#231F20;stroke-miterlimit:10;" d="M384.05,277.768c-4.749-14.876-0.683-24.665-0.683-24.665
									s-4.072-1.514-6.735-3.192c-2.663-1.678-7.467-4.074-5.427-7.462c1.648-2.738,17.393-1.549,20.502,0.395
									c3.109,1.945,9.37,23.948,9.37,23.948l15.355,43.185l-19.647,7.449"/>
							</g>
							<g>
								<path style="fill:#FFFFFF;stroke:#231F20;stroke-miterlimit:10;" d="M358.545,258.335c0,0,6.065,4.094,5.525,7.254
									c-0.539,3.16-8.203,0.364-11.118-1.917c-2.915-2.281-2.703-5.591-1.18-6.58
									C353.295,256.103,358.545,258.335,358.545,258.335z"/>
								<path style="fill:#FFFFFF;stroke:#231F20;stroke-miterlimit:10;" d="M353.681,249.606c0,0,9.1,7.039,7.959,10.757
									c-1.141,3.717-7.906-0.105-11.378-3.077c-3.471-2.972-3.918-5.725-3.081-7.237
									C348.018,248.537,351.419,247.692,353.681,249.606z"/>
							</g>
						</g>
						<g>
							<g>
								<path style="fill:#EE8E01;" d="M416.433,295.277l28.935,36.46l74.547-71.42c0,0,10.762,54.718-8.462,110.21
									c-19.224,55.492-76.478,56.09-99.045,36.471c-22.567-19.619-34.428-93.537-34.428-93.537L416.433,295.277z"/>
							</g>
							<g>
								<path style="fill:#EE8E01;stroke:#231F20;stroke-miterlimit:10;" d="M427.94,309.777l-46.431,21.83
									c-2.338-10.737-3.529-18.146-3.529-18.146l38.453-18.184L427.94,309.777z"/>
							</g>
							<g>
								<path style="fill:#FFFFFF;" d="M425.035,324.405L425.035,324.405c1.56-0.976,3.616-0.503,4.592,1.057l5.479,8.755
									c0.976,1.56,0.503,3.616-1.057,4.592l0,0c-1.56,0.976-3.616,0.503-4.592-1.057l-5.479-8.755
									C423.002,327.437,423.475,325.381,425.035,324.405z"/>
								<path style="fill:#FFFFFF;" d="M398.338,330.912L398.338,330.912c1.56-0.976,3.616-0.503,4.592,1.057l5.479,8.755
									c0.976,1.56,0.503,3.616-1.057,4.592l0,0c-1.56,0.976-3.616,0.503-4.592-1.057l-5.479-8.755
									C396.305,333.945,396.778,331.889,398.338,330.912z"/>
								<path style="fill:#FFFFFF;" d="M405.532,369.778L405.532,369.778c1.56-0.976,3.616-0.503,4.592,1.057l5.479,8.755
									c0.976,1.56,0.503,3.616-1.057,4.592l0,0c-1.56,0.976-3.616,0.503-4.592-1.057l-5.479-8.755
									C403.499,372.81,403.972,370.754,405.532,369.778z"/>
								<path style="fill:#FFFFFF;" d="M429.504,376.355L429.504,376.355c1.56-0.976,3.616-0.503,4.592,1.057l5.479,8.755
									c0.977,1.56,0.503,3.616-1.057,4.592l0,0c-1.56,0.977-3.616,0.503-4.592-1.057l-5.479-8.755
									C427.471,379.387,427.944,377.331,429.504,376.355z"/>
								<path style="fill:#FFFFFF;" d="M420.438,396.773L420.438,396.773c1.56-0.976,3.616-0.503,4.592,1.057l5.479,8.755
									c0.976,1.56,0.503,3.616-1.057,4.592l0,0c-1.56,0.977-3.616,0.503-4.592-1.057l-5.479-8.755
									C418.405,399.806,418.878,397.75,420.438,396.773z"/>
								<path style="fill:#FFFFFF;" d="M445.941,351.507L445.941,351.507c1.56-0.976,3.616-0.503,4.592,1.057l5.479,8.755
									c0.977,1.56,0.503,3.616-1.057,4.592l0,0c-1.56,0.977-3.616,0.503-4.592-1.057l-5.479-8.755
									C443.908,354.539,444.381,352.483,445.941,351.507z"/>
								<path style="fill:#FFFFFF;" d="M457.035,378.878L457.035,378.878c1.56-0.976,3.616-0.503,4.592,1.057l5.479,8.755
									c0.976,1.56,0.503,3.616-1.057,4.592l0,0c-1.56,0.976-3.616,0.503-4.592-1.057l-5.479-8.755
									C455.002,381.91,455.475,379.854,457.035,378.878z"/>
								<path style="fill:#FFFFFF;" d="M465.843,324.603L465.843,324.603c1.464,1.115,1.747,3.205,0.632,4.669l-6.257,8.217
									c-1.115,1.464-3.206,1.747-4.669,0.632l0,0c-1.464-1.115-1.747-3.205-0.632-4.669l6.257-8.217
									C462.289,323.771,464.379,323.488,465.843,324.603z"/>
								<path style="fill:#FFFFFF;" d="M444.891,400.591L444.891,400.591c1.56-0.976,3.616-0.503,4.592,1.057l5.479,8.755
									c0.976,1.56,0.503,3.616-1.057,4.592l0,0c-1.56,0.976-3.616,0.503-4.592-1.057l-5.479-8.755
									C442.858,403.623,443.331,401.567,444.891,400.591z"/>
								<path style="fill:#FFFFFF;" d="M420.438,347.177L420.438,347.177c1.56-0.976,3.616-0.503,4.592,1.057l5.479,8.755
									c0.976,1.56,0.503,3.616-1.057,4.592l0,0c-1.56,0.976-3.616,0.503-4.592-1.057l-5.479-8.755
									C418.405,350.209,418.878,348.153,420.438,347.177z"/>
							</g>
							<g>
								<line style="fill:none;stroke:#231F20;stroke-miterlimit:10;" x1="519.914" y1="260.317" x2="445.368" y2="331.737"/>
								<polyline style="fill:none;stroke:#231F20;stroke-miterlimit:10;" points="455.47,344.467 416.433,295.277 377.98,313.461 
																	"/>
							</g>
						</g>
					</g>
					<g>
						<defs>
							<polygon id="SVGID_00000153698746157575313000000018338327370680840849_" points="697.035,426.617 393.802,426.617 
								413.923,271.881 641.251,236.829 							"/>
						</defs>
						<clipPath id="SVGID_00000095336812377494201620000014913891529222980741_">
							<use xlink:href="#SVGID_00000153698746157575313000000018338327370680840849_"  style="overflow:visible;"/>
						</clipPath>
						<g style="clip-path:url(#SVGID_00000095336812377494201620000014913891529222980741_);">
							<g>
								<path style="fill:#EE8E01;" d="M534.042,258.119c38.02,0,68.841,80.816,68.841,180.508v19.288H465.201v-19.288
									C465.201,338.935,496.022,258.119,534.042,258.119z"/>
								<g>
									<path style="fill:#FFFFFF;" d="M510.451,286.473L510.451,286.473c1.623,0.179,2.794,1.64,2.615,3.263l-1.005,9.11
										c-0.179,1.623-1.64,2.794-3.263,2.615l0,0c-1.623-0.179-2.794-1.64-2.614-3.263l1.005-9.11
										C507.367,287.465,508.828,286.294,510.451,286.473z"/>
									<path style="fill:#FFFFFF;" d="M520.907,309.779L520.907,309.779c1.623,0.179,2.794,1.64,2.615,3.263l-1.005,9.11
										c-0.179,1.623-1.64,2.793-3.263,2.614l0,0c-1.623-0.179-2.794-1.64-2.614-3.263l1.005-9.11
										C517.823,310.771,519.284,309.6,520.907,309.779z"/>
									<path style="fill:#FFFFFF;" d="M496.781,319.983L496.781,319.983c1.623,0.179,2.794,1.64,2.615,3.263l-1.005,9.11
										c-0.179,1.623-1.64,2.793-3.263,2.614l0,0c-1.623-0.179-2.794-1.64-2.615-3.263l1.005-9.11
										C493.697,320.975,495.158,319.804,496.781,319.983z"/>
									<path style="fill:#FFFFFF;" d="M547.383,322.843L547.383,322.843c1.632,0.061,2.905,1.433,2.845,3.065l-0.341,9.159
										c-0.061,1.632-1.433,2.905-3.065,2.845l0,0c-1.632-0.061-2.905-1.433-2.845-3.065l0.341-9.159
										C544.379,324.056,545.751,322.782,547.383,322.843z"/>
									<path style="fill:#FFFFFF;" d="M568.264,337.438L568.264,337.438c1.632,0.061,2.905,1.433,2.844,3.065l-0.341,9.159
										c-0.061,1.632-1.433,2.905-3.065,2.845l0,0c-1.632-0.061-2.905-1.433-2.845-3.065l0.341-9.159
										C565.26,338.65,566.632,337.377,568.264,337.438z"/>
									<path style="fill:#FFFFFF;" d="M549.351,357.645L549.351,357.645c1.632,0.061,2.905,1.433,2.845,3.065l-0.341,9.159
										c-0.061,1.632-1.433,2.905-3.065,2.845l0,0c-1.632-0.061-2.905-1.433-2.845-3.065l0.341-9.159
										C546.347,358.858,547.719,357.584,549.351,357.645z"/>
									<path style="fill:#FFFFFF;" d="M522.669,349.458L522.669,349.458c1.632,0.061,2.905,1.433,2.844,3.065l-0.341,9.159
										c-0.061,1.632-1.433,2.906-3.065,2.845l0,0c-1.632-0.061-2.905-1.433-2.845-3.065l0.341-9.159
										C519.664,350.671,521.036,349.398,522.669,349.458z"/>
									<path style="fill:#FFFFFF;" d="M496.235,359.1L496.235,359.1c1.632,0.061,2.906,1.433,2.845,3.065l-0.341,9.159
										c-0.061,1.632-1.433,2.905-3.065,2.844l0,0c-1.632-0.061-2.905-1.433-2.845-3.065l0.341-9.159
										C493.231,360.313,494.603,359.04,496.235,359.1z"/>
									<path style="fill:#FFFFFF;" d="M582.086,359.1L582.086,359.1c1.632,0.061,2.905,1.433,2.845,3.065l-0.341,9.159
										c-0.061,1.632-1.433,2.905-3.065,2.844l0,0c-1.632-0.061-2.905-1.433-2.845-3.065l0.341-9.159
										C579.082,360.313,580.454,359.04,582.086,359.1z"/>
									<path style="fill:#FFFFFF;" d="M565.961,380.437L565.961,380.437c1.632,0.061,2.906,1.433,2.845,3.065l-0.341,9.159
										c-0.061,1.632-1.433,2.905-3.065,2.845l0,0c-1.632-0.061-2.905-1.433-2.844-3.065l0.341-9.159
										C562.958,381.65,564.33,380.376,565.961,380.437z"/>
									<path style="fill:#FFFFFF;" d="M532.328,377.956L532.328,377.956c1.632,0.061,2.905,1.433,2.845,3.065l-0.341,9.159
										c-0.061,1.632-1.433,2.905-3.065,2.845l0,0c-1.632-0.061-2.905-1.433-2.844-3.065l0.341-9.159
										C529.324,379.168,530.696,377.895,532.328,377.956z"/>
									<path style="fill:#FFFFFF;" d="M510.237,395.278L510.237,395.278c1.632,0.061,2.905,1.433,2.845,3.065l-0.341,9.159
										c-0.061,1.632-1.433,2.905-3.065,2.845l0,0c-1.632-0.061-2.905-1.433-2.844-3.065l0.341-9.159
										C507.233,396.491,508.605,395.217,510.237,395.278z"/>
									<path style="fill:#FFFFFF;" d="M486.119,411.682L486.119,411.682c1.632,0.061,2.905,1.433,2.845,3.065l-0.341,9.159
										c-0.061,1.632-1.433,2.905-3.065,2.845l0,0c-1.632-0.061-2.905-1.433-2.845-3.065l0.341-9.159
										C483.115,412.895,484.487,411.621,486.119,411.682z"/>
									<path style="fill:#FFFFFF;" d="M529.201,419.218L529.201,419.218c1.632,0.061,2.905,1.433,2.845,3.065l-0.341,9.159
										c-0.061,1.632-1.433,2.905-3.065,2.844l0,0c-1.632-0.061-2.905-1.433-2.844-3.065l0.341-9.159
										C526.197,420.431,527.569,419.158,529.201,419.218z"/>
									<path style="fill:#FFFFFF;" d="M551.805,409.097L551.805,409.097c1.632,0.061,2.906,1.433,2.845,3.065l-0.341,9.159
										c-0.061,1.632-1.433,2.905-3.065,2.845l0,0c-1.632-0.061-2.905-1.433-2.844-3.065l0.341-9.159
										C548.802,410.31,550.174,409.036,551.805,409.097z"/>
									<path style="fill:#FFFFFF;" d="M588.356,419.218L588.356,419.218c1.632,0.061,2.905,1.433,2.845,3.065l-0.341,9.159
										c-0.061,1.632-1.433,2.905-3.065,2.844l0,0c-1.632-0.061-2.905-1.433-2.844-3.065l0.341-9.159
										C585.352,420.431,586.724,419.158,588.356,419.218z"/>
									<path style="fill:#FFFFFF;" d="M477.171,433.223L477.171,433.223c1.632,0.061,2.905,1.433,2.845,3.065l-0.341,9.159
										c-0.061,1.632-1.433,2.905-3.065,2.845l0,0c-1.632-0.061-2.905-1.433-2.845-3.065l0.341-9.159
										C474.168,434.436,475.54,433.162,477.171,433.223z"/>
									<path style="fill:#FFFFFF;" d="M565.961,431.297L565.961,431.297c1.632,0.061,2.906,1.433,2.845,3.065l-0.341,9.159
										c-0.061,1.632-1.433,2.906-3.065,2.845l0,0c-1.632-0.061-2.905-1.433-2.844-3.065l0.341-9.159
										C562.958,432.51,564.33,431.236,565.961,431.297z"/>
									<path style="fill:#FFFFFF;" d="M479.042,375.917L479.042,375.917c1.632,0.061,2.905,1.433,2.845,3.065l-0.341,9.159
										c-0.061,1.632-1.433,2.905-3.065,2.845l0,0c-1.632-0.061-2.905-1.433-2.844-3.065l0.341-9.159
										C476.038,377.13,477.41,375.857,479.042,375.917z"/>
								</g>
								<rect x="465.201" y="440.757" style="fill:#FFFFFF;" width="137.682" height="17.158"/>
								<path style="fill:none;stroke:#231F20;stroke-miterlimit:10;" d="M602.883,457.915H465.201v-19.288
									c0-99.692,30.821-180.508,68.841-180.508"/>
							</g>
						</g>
					</g>
					<g>
						<g>
							<path style="fill:#FFFFFF;" d="M496.974,398.233l7.755,33.168l-40.596,2.379c0,0-4.051-0.577-6.615,2.885
								c-2.564,3.462-2.253,5.054-2.329,6.111c-0.077,1.056-0.367,4.988-1.821,7.26c-1.453,2.272-2.939,2.434-4.417,1.344
								c-1.478-1.09-1.478-1.09-1.478-1.09s-0.542-0.179-1.116,0.596c-0.574,0.775-2.207,1.835-3.387,0.66
								c-1.18-1.175-1.194-1.015-1.194-1.015s-0.394-0.514-0.859,0.119c-0.465,0.633-2.741,1.95-4.235,0.652
								c-1.494-1.298-2.155-2.219-2.155-2.219s-0.39-0.066-1.093,0.347c-0.702,0.414-3.665,1.646-5.936-1.73
								c-2.271-3.376-2.131-9.066-2.041-12.799c0.091-3.733,1.939-12.091,4.247-15.719c2.307-3.629,7.04-8.158,12.453-9.968
								s20.79-4.899,27.294-6.098C475.956,401.919,496.974,398.233,496.974,398.233z"/>
							<path style="fill:none;stroke:#231F20;stroke-miterlimit:10;" d="M449.542,425.988c0,0-4.211,11.265-4.369,17.109
								c-0.158,5.844,3.697,9.4,5.531,8.981c1.834-0.419,4.147-2.747,4.419-8.438c0.272-5.691,3.56-9.107,6.292-9.601
								c2.732-0.494,45.42-2.75,45.42-2.75"/>
							<path style="fill:none;stroke:#231F20;stroke-miterlimit:10;" d="M441.998,425.791c0,0-3.066,11.839-2.612,17.702
								c0.453,5.864,3.602,8.636,4.901,8.618s2.905-2.175,2.905-2.175"/>
							<path style="fill:none;stroke:#231F20;stroke-miterlimit:10;" d="M434.934,422.729c0,0-3.6,11.284-2.975,17.378
								c0.625,6.093,2.493,10.182,5.051,11.368c2.558,1.186,4.509-1.467,4.509-1.467"/>
							<path style="fill:none;stroke:#231F20;stroke-miterlimit:10;" d="M498.055,398.052c0,0-39.862,6.668-52.566,10.095
								c-12.704,3.427-17.122,11.388-18.905,19.045c-1.783,7.657-1.257,17.278,0.976,20.265c3.83,5.125,6.634,1.236,6.634,1.236"/>
						</g>
						<g>
							<path style="fill:#EE8E01;" d="M485.477,395.162l83.579-22.822l-46.554-91.123l16.312-25.097c0,0,27.013,7.895,72.084,41.95
								c45.07,34.056,62.082,90.538,38.836,118.295c-38.191,45.604-114.962,39.045-163.775,21.779L485.477,395.162z"/>
							<path style="fill:#263238;" d="M541.993,320.185l27.063,52.154C569.056,372.339,553.332,342.111,541.993,320.185z"/>
						</g>
						<g>
							<path style="fill:#FFFFFF;" d="M540.925,290.974L540.925,290.974c1.368-0.891,3.2-0.504,4.091,0.864l5.001,7.68
								c0.891,1.368,0.504,3.2-0.864,4.091l0,0c-1.368,0.891-3.2,0.504-4.091-0.864l-5.002-7.68
								C539.17,293.697,539.557,291.865,540.925,290.974z"/>
							<path style="fill:#FFFFFF;" d="M567.3,310.464L567.3,310.464c1.368-0.891,3.2-0.504,4.091,0.864l5.001,7.68
								c0.891,1.368,0.504,3.2-0.864,4.091l0,0c-1.368,0.891-3.2,0.504-4.091-0.864l-5.001-7.68
								C565.545,313.186,565.932,311.355,567.3,310.464z"/>
							<path style="fill:#FFFFFF;" d="M594.196,341.597L594.196,341.597c1.368-0.891,3.2-0.504,4.091,0.864l5.002,7.68
								c0.891,1.368,0.504,3.2-0.864,4.091l0,0c-1.368,0.891-3.2,0.504-4.091-0.864l-5.001-7.68
								C592.441,344.32,592.828,342.488,594.196,341.597z"/>
							<path style="fill:#FFFFFF;" d="M631.679,342.549L631.679,342.549c1.368-0.891,3.2-0.504,4.091,0.864l5.001,7.68
								c0.891,1.368,0.504,3.2-0.864,4.091l0,0c-1.368,0.891-3.2,0.504-4.091-0.864l-5.001-7.68
								C629.923,345.272,630.31,343.44,631.679,342.549z"/>
							<path style="fill:#FFFFFF;" d="M510.48,398.141L510.48,398.141c-0.283-1.608,0.791-3.141,2.4-3.424l9.026-1.589
								c1.608-0.283,3.141,0.791,3.424,2.4l0,0c0.283,1.608-0.791,3.142-2.399,3.424l-9.026,1.589
								C512.296,400.824,510.763,399.75,510.48,398.141z"/>
							<path style="fill:#FFFFFF;" d="M534.911,414.692L534.911,414.692c-0.173-1.624,1.003-3.08,2.627-3.253l9.113-0.97
								c1.624-0.173,3.08,1.003,3.253,2.627l0,0c0.173,1.624-1.003,3.08-2.627,3.253l-9.114,0.97
								C536.54,417.491,535.084,416.315,534.911,414.692z"/>
							<path style="fill:#FFFFFF;" d="M584.13,409.216L584.13,409.216c-0.332-1.599,0.696-3.164,2.295-3.496l8.974-1.861
								c1.599-0.332,3.164,0.696,3.495,2.295l0,0c0.332,1.599-0.696,3.164-2.295,3.495l-8.974,1.861
								C586.027,411.842,584.462,410.815,584.13,409.216z"/>
							<path style="fill:#FFFFFF;" d="M617.971,424.495L617.971,424.495c-0.748-1.452-0.177-3.235,1.274-3.983l8.147-4.198
								c1.452-0.748,3.234-0.177,3.983,1.274l0,0c0.748,1.452,0.178,3.235-1.274,3.982l-8.147,4.198
								C620.502,426.517,618.719,425.946,617.971,424.495z"/>
							<path style="fill:#FFFFFF;" d="M633.077,387.789L633.077,387.789c-0.748-1.452-0.177-3.235,1.274-3.983l8.147-4.198
								c1.452-0.748,3.235-0.177,3.983,1.274l0,0c0.748,1.452,0.178,3.235-1.274,3.982l-8.147,4.198
								C635.608,389.811,633.825,389.241,633.077,387.789z"/>
							<path style="fill:#FFFFFF;" d="M593.871,382.611L593.871,382.611c-0.764-1.443-0.213-3.232,1.23-3.997l8.1-4.288
								c1.443-0.764,3.232-0.213,3.997,1.23l0,0c0.764,1.443,0.214,3.232-1.23,3.996l-8.1,4.288
								C596.424,384.605,594.635,384.055,593.871,382.611z"/>
							<path style="fill:#FFFFFF;" d="M560.7,436.025L560.7,436.025c-0.118-1.629,1.107-3.045,2.736-3.163l9.141-0.661
								c1.629-0.118,3.044,1.107,3.162,2.736l0,0c0.118,1.629-1.107,3.044-2.736,3.162l-9.141,0.661
								C562.233,438.878,560.818,437.653,560.7,436.025z"/>
							<path style="fill:#FFFFFF;" d="M516.515,434.843L516.515,434.843c0.101-1.63,1.504-2.869,3.134-2.769l9.147,0.566
								c1.63,0.101,2.869,1.504,2.768,3.134l0,0c-0.101,1.63-1.504,2.869-3.133,2.768l-9.148-0.566
								C517.653,437.875,516.414,436.472,516.515,434.843z"/>
							<path style="fill:#FFFFFF;" d="M494.433,417.604L494.433,417.604c-0.108-1.629,1.126-3.038,2.755-3.145l9.145-0.604
								c1.63-0.108,3.038,1.126,3.145,2.755l0,0c0.108,1.629-1.126,3.037-2.755,3.145l-9.145,0.604
								C495.949,420.467,494.54,419.234,494.433,417.604z"/>
							<path style="fill:#FFFFFF;" d="M560.245,386.033L560.245,386.033c-0.368-1.591,0.624-3.179,2.215-3.547l8.93-2.063
								c1.591-0.367,3.179,0.624,3.546,2.215l0,0c0.368,1.591-0.624,3.179-2.215,3.546l-8.93,2.063
								C562.201,388.616,560.613,387.624,560.245,386.033z"/>
							<path style="fill:#FFFFFF;" d="M602.668,308.021L602.668,308.021c1.289-1.003,3.146-0.771,4.149,0.518l5.628,7.234
								c1.003,1.289,0.771,3.146-0.518,4.149l0,0c-1.289,1.003-3.147,0.771-4.149-0.518l-5.628-7.234
								C601.147,310.882,601.379,309.024,602.668,308.021z"/>
							<path style="fill:#FFFFFF;" d="M561.362,338.028L561.362,338.028c1.468-0.716,3.238-0.106,3.953,1.362l4.016,8.239
								c0.716,1.468,0.105,3.238-1.363,3.953l0,0c-1.468,0.716-3.237,0.106-3.953-1.362L560,341.981
								C559.285,340.513,559.894,338.743,561.362,338.028z"/>
							<path style="fill:#FFFFFF;" d="M570.04,283.833L570.04,283.833c1.229-1.075,3.097-0.949,4.172,0.28l6.032,6.9
								c1.075,1.23,0.949,3.097-0.28,4.172l0,0c-1.229,1.075-3.097,0.949-4.172-0.28l-6.032-6.9
								C568.685,286.776,568.81,284.908,570.04,283.833z"/>
						</g>
						<path style="fill:#EE8E01;stroke:#231F20;stroke-miterlimit:10;" d="M485.477,395.162l17.941-4.899
							c0.003,9.245,0.532,40.477,0.758,53.436c-6.381-1.663-12.497-3.53-18.218-5.554L485.477,395.162z"/>
						<path style="fill:none;stroke:#231F20;stroke-miterlimit:10;" d="M536.798,255.061c0,0,29.029,8.953,74.1,43.008
							c45.07,34.056,62.082,90.538,38.836,118.295c-38.191,45.604-114.962,39.044-163.775,21.779l-0.481-42.983l89.648-24.48"/>
						<path style="fill:none;stroke:#231F20;stroke-miterlimit:10;" d="M569.056,372.339c0,0-15.724-30.228-27.063-52.154"/>
					</g>
					<g>
						<g>
							<path style="fill:#FFFFFF;stroke:#231F20;stroke-miterlimit:10;" d="M508.264,178.637h16.023
								c10.653,0,19.368,9.923,19.368,22.051v24.838c0,0.7-0.036,1.391-0.093,2.075c0.173,0.732,0.274,1.492,0.274,2.275v15.12
								v0.842v15.12c0,5.487-4.489,9.976-9.976,9.976h-6.356c-5.487,0-9.975-4.489-9.975-9.976v-13.38h-9.265
								c-10.652,0-19.368-9.923-19.368-22.052v-24.838C488.896,188.56,497.612,178.637,508.264,178.637z"/>
							<g>
								<path style="fill:#231F20;" d="M541.758,213.079c0,0-3.624-20.925-4.599-17.835c-1.391,4.41-1.226,28.822-5.962,30.968
									c-6.267,2.84-8.573-7.884-21.195-8.315c-12.622-0.431-19.879,5.775-21.105,10.828c-1.226,5.053,5.275,12.257,9.24,15.566
									c4.971,4.148,19.393,3.286,19.393,3.286s12.491,0.757,17.717-6.614C540.684,233.293,541.758,213.079,541.758,213.079z"/>
								<g>
									<g>
										<path style="fill:#231F20;" d="M520.96,208.803c0,1.995-1.617,3.612-3.612,3.612s-3.612-1.617-3.612-3.612
											c0-1.994,1.617-3.612,3.612-3.612S520.96,206.809,520.96,208.803z"/>
										<path style="fill:#231F20;" d="M497.314,208.274c0,1.703-1.38,3.083-3.083,3.083c-1.703,0-3.083-1.38-3.083-3.083
											c0-1.703,1.38-3.083,3.083-3.083C495.934,205.192,497.314,206.572,497.314,208.274z"/>
									</g>
									<g>
										<path style="fill:#FFFFFF;" d="M500.763,223.052c0,0,1.815,5.289,5.652,5.652c3.837,0.363,6.845-3.889,7.052-7.208
											L500.763,223.052z"/>
										<g>
											<path style="fill:#231F20;" d="M500.225,223.2c0.64,1.85,1.794,3.707,3.352,4.907c2.754,2.122,6.273,1.051,8.337-1.489
												c1.184-1.456,1.971-3.242,2.111-5.122c0.021-0.276-0.274-0.593-0.558-0.558c-3.708,0.454-7.417,0.908-11.125,1.363
												c-0.526,0.064-1.053,0.129-1.579,0.193c-0.704,0.086-0.713,1.204,0,1.116c3.708-0.454,7.417-0.908,11.125-1.363
												c0.527-0.064,1.053-0.129,1.579-0.194c-0.186-0.186-0.372-0.372-0.558-0.558c-0.204,2.733-2.18,5.805-4.932,6.528
												c-2.632,0.691-4.657-1.278-5.859-3.388c-0.324-0.569-0.613-1.142-0.817-1.732
												C501.068,222.229,499.989,222.519,500.225,223.2z"/>
										</g>
									</g>
								</g>
							</g>
							<path style="fill:#231F20;" d="M539.457,217.49l-2.957-19.455c0,0-53.825,6.747-71.274-19.398
								c-17.449-26.146,0.887-36.497,9.759-35.018c8.872,1.479,19.246,14.196,19.246,14.196s-8.258-11.238,0-13.013
								c8.258-1.775,17.38,6.802,22.135,15.674c0,0,35.479-3.308,47.473,18.161c11.994,21.469,2.273,36.699-19.663,58.88l-2-12.406
								L539.457,217.49z"/>
							<g>
								<g>
									<g>
										<path style="fill:none;stroke:#4D5A64;stroke-miterlimit:10;" d="M531.404,207.171c0,6.757-4.901,12.235-10.946,12.235
											c-6.045,0-10.945-5.478-10.945-12.235c0-6.757,4.9-12.235,10.945-12.235C526.503,194.936,531.404,200.414,531.404,207.171
											z"/>
										<path style="fill:none;stroke:#4D5A64;stroke-miterlimit:10;" d="M502.191,205.638c0,6.043-4.035,10.942-9.012,10.942
											c-4.977,0-9.012-4.899-9.012-10.942c0-6.043,4.035-10.942,9.012-10.942C498.156,194.696,502.191,199.595,502.191,205.638z
											"/>
										<polygon style="fill:#E5809D;" points="504.556,205.192 505.295,217.49 499.423,213.912 										"/>
										<path style="fill:none;stroke:#4D5A64;stroke-miterlimit:10;" d="M501.907,208.91c0,0,4.659-1.764,7.857,0.878"/>
									</g>
								</g>
							</g>
						</g>
						<line style="fill:none;stroke:#4D5A64;stroke-miterlimit:10;" x1="531.39" y1="207.62" x2="546.238" y2="210.723"/>
						<g>
							<path style="fill:#FFFFFF;" d="M563.839,217.898c0,6.988-5.711,12.653-12.756,12.653c-7.045,0-12.756-5.665-12.756-12.653
								c0-6.988,5.711-12.653,12.756-12.653C558.128,205.245,563.839,210.91,563.839,217.898z"/>
							<g>
								<g>
									<path style="fill:#231F20;" d="M544.596,219.569c-0.164-2.577,0.955-5.531,3.442-6.697c1.365-0.639,2.935-0.683,4.409-0.53
										c0.528,0.055,0.524-0.771,0-0.826c-2.515-0.261-5.233,0.212-6.91,2.267c-1.076,1.318-1.59,2.988-1.737,4.663
										c-0.032,0.371-0.054,0.75-0.03,1.122C543.804,220.096,544.63,220.1,544.596,219.569L544.596,219.569z"/>
								</g>
							</g>
							<path style="fill:none;stroke:#231F20;stroke-miterlimit:10;" d="M540.381,224.786c-1.3-1.982-2.054-4.348-2.054-6.888
								c0-3.55,1.474-6.759,3.849-9.057"/>
							<path style="fill:none;stroke:#231F20;stroke-miterlimit:10;" d="M542.176,208.84c2.299-2.225,5.442-3.595,8.907-3.595
								c7.045,0,12.756,5.665,12.756,12.653c0,6.988-5.711,12.653-12.756,12.653c-2.174,0-4.222-0.54-6.013-1.491
								c-0.665-0.353-1.781-1.052-2.313-1.576"/>
						</g>
					</g>
					<g>
						<g>
							<path style="fill:#FFFFFF;" d="M522.202,279.135c17.854,0.59,27.468-7.88,30.806-12.767c0.759-1.111,1.667-2.204,2.614-3.236
								l-4.539-2.19c-1.991-0.939-2.874-1.062-4.171-1.52c0,0-13.246,4.072-19.649,3.872c-4.204-0.131-7.172-2.465-9.026-3.77
								c-0.43,0.045-0.676,0.072-0.676,0.072s-4.732,2.327-14.071,16.017C506.34,277.037,511.886,278.794,522.202,279.135z"/>
							<g>
								<path d="M522.202,279.51c10.384,0.3,21.449-2.461,28.847-10.169c1.776-1.851,3.115-4.045,4.838-5.944
									c0.15-0.165,0.153-0.479-0.076-0.589c-1.407-0.679-2.813-1.363-4.223-2.037c-0.897-0.428-1.806-0.821-2.751-1.131
									c-0.644-0.211-1.446-0.621-2.113-0.553c-1.33,0.137-2.775,0.806-4.066,1.151c-2.5,0.668-5.017,1.279-7.556,1.779
									c-2.492,0.491-5.059,0.951-7.609,0.907c-3.333-0.057-6.008-1.616-8.669-3.441c-1.412-0.969-3.036,0.861-4.025,1.748
									c-4.543,4.075-8.207,9.185-11.634,14.192c-0.109,0.159-0.038,0.428,0.135,0.513
									C509.045,278.774,515.911,279.287,522.202,279.51c0.483,0.017,0.482-0.733,0-0.75c-6.148-0.218-12.902-0.695-18.522-3.47
									c0.045,0.171,0.09,0.342,0.134,0.513c3.195-4.669,6.591-9.335,10.687-13.268c0.798-0.766,1.626-1.52,2.532-2.158
									c0.604-0.425,0.74-0.583,1.313-0.318c1.109,0.513,2.08,1.461,3.18,2.035c1.308,0.682,2.71,1.193,4.17,1.422
									c2.359,0.371,4.794,0.042,7.133-0.332c4.452-0.71,8.848-1.838,13.172-3.1c0.506-0.148,0.78-0.259,1.215-0.164
									c1.282,0.278,2.589,0.831,3.765,1.388c1.489,0.705,2.968,1.432,4.452,2.148c-0.025-0.196-0.051-0.393-0.076-0.589
									c-1.815,1.999-3.219,4.313-5.121,6.234c-1.82,1.838-3.906,3.4-6.141,4.698c-6.616,3.843-14.315,5.181-21.892,4.961
									C521.719,278.746,521.719,279.496,522.202,279.51z"/>
							</g>
						</g>
						<g>
							<g>
								<path d="M528.366,263.335c0,0,3.275,3.424,3.527,4.686c0.252,1.262-2.75,6.453-6.436,5.596s-7.137-3.547-6.469-5.898
									c0.669-2.35,5.161-5.882,5.161-5.882S527.862,262.346,528.366,263.335z"/>
								<path d="M527.75,279.647c0.059-5.643,0.193-8.896,0.193-8.896s0.03-12.431-4.795-0.898
									c-1.181,2.823-2.169,6.217-2.999,9.917C522.272,279.951,524.97,280.014,527.75,279.647z"/>
							</g>
							<g>
								<path style="fill:#FFFFFF;stroke:#000000;stroke-miterlimit:10;" d="M550.635,261.417l-7.211-10.489
									c0,0-4.412,4.019-7.541,6.652c-6.046,5.087-10.177,4.535-10.177,4.535l10.767,16.548
									C536.474,278.663,547.39,271.47,550.635,261.417z"/>
								<path style="fill:#FFFFFF;stroke:#000000;stroke-miterlimit:10;" d="M525.707,262.115l-9.578,13.198
									c0,0-3.354-8.012-3.355-11.566c-0.001-3.554,4.61-8.686,4.61-8.686S521.509,260.219,525.707,262.115z"/>
							</g>
						</g>
					</g>
					<path style="fill:#EE8E01;stroke:#231F20;stroke-miterlimit:10;" d="M551.083,260.942c0,0-17.706,25.951-41.57,6.535
						l-6.023,8.136c0,0,10.666,13.576,32.207,7.831s23.372-18.65,23.372-18.65L551.083,260.942z"/>
				</g>
			</g>
			<g>
				<g>
					<g>
						<path style="fill:#FFFFFF;stroke:#231F20;stroke-miterlimit:10;" d="M643.891,413.01c-9.583,0-17.352,7.769-17.352,17.352
							c0,9.583,7.769,17.352,17.352,17.352c9.583,0,17.352-7.769,17.352-17.352C661.243,420.778,653.474,413.01,643.891,413.01z
							 M643.891,441.326c-6.056,0-10.965-4.909-10.965-10.965c0-6.056,4.909-10.965,10.965-10.965
							c6.056,0,10.965,4.909,10.965,10.965C654.856,436.417,649.947,441.326,643.891,441.326z"/>
						<path style="fill:#FFFFFF;stroke:#231F20;stroke-miterlimit:10;" d="M638.75,458.209h-36.078
							c-3.243,0-5.873-2.629-5.873-5.873v-43.34c0-3.243,2.629-5.873,5.873-5.873h36.078c3.243,0,5.873,2.629,5.873,5.873v43.34
							C644.623,455.58,641.994,458.209,638.75,458.209z"/>
						<g>
							<g>
								<g>
									<path style="fill:#BCB9BD;" d="M604.047,433.267c0,0-0.269-9.24,0.897-9.419c1.166-0.179,3.768,7.446,3.768,7.446
										S607.995,433.716,604.047,433.267z"/>
								</g>
								<g>
									<path style="fill:#BCB9BD;" d="M614.274,425.373c-0.546,0-0.718-13.456,0.718-13.994
										c1.435-0.538,5.203,11.213,5.203,11.841C620.195,423.848,614.633,425.373,614.274,425.373z"/>
								</g>
							</g>
							<g>
								<g>
									<path style="fill:#6040EC;" d="M603.419,437.214c0,0-1.256-3.499,1.704-6.549c2.96-3.05,10.854-4.844,15.071-11.931
										c4.216-7.087,5.652-8.163,6.728-5.921c1.076,2.243-0.897,6.19,2.153,4.037c3.05-2.153,5.741-2.44,4.844,1.516
										c-0.897,3.956-1.525,3.597,1.525,2.969c3.05-0.628,5.472,1.615,2.781,4.844c-2.691,3.229-2.063,3.499,0.359,4.396
										c2.422,0.897,3.492,3.409,0.804,4.754c-2.688,1.346-3.495,1.794-2.06,3.857c1.435,2.063,0.897,4.037-0.628,4.126
										c-1.525,0.09-4.844-1.076-3.947,1.615c0.897,2.691-0.269,4.934-2.332,3.499c-2.063-1.435-1.615,3.162-3.745,2.534
										c-1.465-0.432,0.569-3.252-4.616-5.764C616.875,442.686,606.2,444.57,603.419,437.214z"/>
								</g>
							</g>
							<g>
								<path style="fill:#231F20;" d="M619.208,429.858c0,0.793-0.643,1.435-1.435,1.435s-1.435-0.642-1.435-1.435
									c0-0.793,0.643-1.435,1.435-1.435S619.208,429.065,619.208,429.858z"/>
								<g>
									<g>
										<path style="fill:#231F20;" d="M606.559,441.596c3.328,0.379,7.162-0.007,10.129-1.617c1.194-0.648,2.22-1.547,2.973-2.68
											c0.375-0.564-0.534-1.091-0.907-0.53c-1.608,2.419-4.625,3.37-7.374,3.709c-1.583,0.195-3.233,0.249-4.821,0.068
											C605.889,440.47,605.894,441.521,606.559,441.596L606.559,441.596z"/>
									</g>
								</g>
								<path style="fill:#E5809D;" d="M622.034,434.735c0,0.78-0.633,1.413-1.413,1.413c-0.78,0-1.413-0.633-1.413-1.413
									s0.633-1.413,1.413-1.413C621.401,433.322,622.034,433.955,622.034,434.735z"/>
							</g>
							<g>
								<path style="fill:none;stroke:#FFFFFF;stroke-width:0.25;stroke-miterlimit:10;" d="M632.058,426.774
									c0,0.353-0.286,0.639-0.639,0.639s-0.639-0.286-0.639-0.639c0-0.353,0.286-0.639,0.639-0.639
									S632.058,426.422,632.058,426.774z"/>
								<path style="fill:none;stroke:#FFFFFF;stroke-width:0.25;stroke-miterlimit:10;" d="M629.771,423.747
									c0,0.91-0.738,1.648-1.648,1.648c-0.91,0-1.648-0.738-1.648-1.648c0-0.91,0.738-1.648,1.648-1.648
									C629.033,422.099,629.771,422.836,629.771,423.747z"/>
								<path style="fill:none;stroke:#FFFFFF;stroke-width:0.25;stroke-miterlimit:10;" d="M634.81,435.145
									c0,0.554-0.449,1.003-1.003,1.003c-0.554,0-1.003-0.449-1.003-1.003s0.449-1.003,1.003-1.003
									C634.361,434.142,634.81,434.591,634.81,435.145z"/>
								<path style="fill:none;stroke:#FFFFFF;stroke-width:0.25;stroke-miterlimit:10;" d="M634.907,430.743
									c0,0.304-0.246,0.55-0.55,0.55c-0.304,0-0.55-0.246-0.55-0.55c0-0.304,0.246-0.55,0.55-0.55
									C634.661,430.193,634.907,430.439,634.907,430.743z"/>
								<path style="fill:none;stroke:#FFFFFF;stroke-width:0.25;stroke-miterlimit:10;" d="M630.271,443.6
									c0,0.593-0.481,1.074-1.074,1.074c-0.593,0-1.074-0.481-1.074-1.074c0-0.593,0.481-1.074,1.074-1.074
									C629.79,442.526,630.271,443.006,630.271,443.6z"/>
								<circle style="fill:none;stroke:#FFFFFF;stroke-width:0.25;stroke-miterlimit:10;" cx="632.687" cy="440.422" r="0.628"/>
								<path style="fill:none;stroke:#FFFFFF;stroke-width:0.25;stroke-miterlimit:10;" d="M630.271,438.022
									c0,0.239-0.194,0.432-0.432,0.432c-0.239,0-0.432-0.194-0.432-0.432s0.194-0.433,0.432-0.433
									C630.077,437.589,630.271,437.783,630.271,438.022z"/>
								<path style="fill:none;stroke:#FFFFFF;stroke-width:0.25;stroke-miterlimit:10;" d="M636.648,424.99
									c0,0.633-0.513,1.145-1.145,1.145c-0.633,0-1.145-0.513-1.145-1.145c0-0.633,0.513-1.145,1.145-1.145
									C636.135,423.845,636.648,424.357,636.648,424.99z"/>
								<path style="fill:none;stroke:#FFFFFF;stroke-width:0.25;stroke-miterlimit:10;" d="M637.816,433.111
									c0,0.323-0.261,0.584-0.584,0.584c-0.323,0-0.584-0.262-0.584-0.584s0.261-0.584,0.584-0.584
									C637.554,432.527,637.816,432.788,637.816,433.111z"/>
								<circle style="fill:none;stroke:#FFFFFF;stroke-width:0.25;stroke-miterlimit:10;" cx="635.733" cy="440.934" r="0.513"/>
								<path style="fill:none;stroke:#FFFFFF;stroke-width:0.25;stroke-miterlimit:10;" d="M628.022,447.766
									c0,0.279-0.226,0.505-0.505,0.505c-0.279,0-0.505-0.226-0.505-0.505c0-0.279,0.226-0.505,0.505-0.505
									C627.796,447.261,628.022,447.487,628.022,447.766z"/>
								<path style="fill:none;stroke:#FFFFFF;stroke-width:0.25;stroke-miterlimit:10;" d="M631.438,446.85
									c0,0.367-0.298,0.665-0.665,0.665c-0.367,0-0.665-0.298-0.665-0.665c0-0.367,0.298-0.665,0.665-0.665
									C631.14,446.185,631.438,446.483,631.438,446.85z"/>
								<circle style="fill:none;stroke:#FFFFFF;stroke-width:0.25;stroke-miterlimit:10;" cx="630.814" cy="419.71" r="0.976"/>
								<path style="fill:none;stroke:#FFFFFF;stroke-width:0.25;stroke-miterlimit:10;" d="M627.012,419.408
									c0,0.372-0.302,0.673-0.674,0.673c-0.372,0-0.673-0.301-0.673-0.673c0-0.372,0.301-0.674,0.673-0.674
									C626.711,418.734,627.012,419.036,627.012,419.408z"/>
							</g>
						</g>
					</g>
					<g>
						<g>
							<g>
								<path style="fill:#BCB9BD;" d="M639.84,385.541c-0.048,3.522-2.221,6.766-5.573,7.97c-3.379,1.214-7.214,0.157-9.49-2.621
									c-2.233-2.726-2.495-6.685-0.693-9.7c1.789-2.994,5.377-4.65,8.819-3.991C636.918,377.967,639.785,381.478,639.84,385.541
									c0.02,1.447,2.27,1.451,2.25,0c-0.061-4.468-2.799-8.457-6.986-10.051c-4.189-1.596-9.164-0.264-11.997,3.208
									c-2.833,3.474-3.282,8.455-0.966,12.33c2.309,3.863,6.827,5.841,11.232,5.048c5.047-0.908,8.648-5.483,8.717-10.535
									C642.11,384.093,639.86,384.092,639.84,385.541z"/>
							</g>
						</g>
						<g>
							<g>
								<path style="fill:#BCB9BD;" d="M681.622,352.099c-0.07,9.406-6.295,17.775-15.157,20.839
									c-9.051,3.129-19.404,0.479-25.649-6.826c-6.048-7.075-6.823-17.478-1.926-25.381c5.024-8.108,14.995-12.202,24.301-10.357
									C673.582,332.436,681.542,341.397,681.622,352.099c0.011,1.447,2.261,1.451,2.25,0c-0.077-10.33-6.837-19.409-16.493-22.897
									c-9.805-3.542-21.356-0.661-28.155,7.292c-6.695,7.832-7.732,19.304-2.277,28.107c5.522,8.911,16.275,13.329,26.505,11.455
									c11.514-2.109,20.332-12.195,20.42-23.958C683.883,350.651,681.633,350.65,681.622,352.099z"/>
							</g>
						</g>
					</g>
				</g>
				<g>
					<g>
						<g>
							<g>
								<path style="fill:#231F20;" d="M331.319,458.555l100.189,0.183c10.4,0.019,15.778-8.052,12.01-18.026l-26.262-69.536
									c-3.767-9.975-15.253-18.076-25.653-18.095l-100.189-0.183c-10.4-0.019-15.778,8.052-12.01,18.026l26.263,69.536
									C309.433,450.435,320.918,458.536,331.319,458.555z"/>
								<path style="fill:#FFFFFF;" d="M346.441,400.305c1.175,4.415,5.705,8.002,10.118,8.01c4.414,0.008,7.039-3.565,5.865-7.981
									c-1.175-4.416-5.705-8.002-10.118-8.01C347.893,392.316,345.267,395.889,346.441,400.305z"/>
								<path style="fill:#231F20;" d="M400.924,458.682l100.664,0.184c1.4,0.003,2.538-1.13,2.54-2.531l0.019-9.915
									c0.003-1.4-1.13-2.538-2.531-2.54l-100.666-0.184c-1.4-0.003-2.538,1.131-2.54,2.531l-0.017,9.915
									C398.39,457.542,399.523,458.68,400.924,458.682z"/>
							</g>
						</g>
					</g>
					<g>
						<g>
							<path style="fill:#FFFFFF;stroke:#231F20;stroke-miterlimit:10;" d="M367.674,87.161h66.435
								c8.005,0,14.494,6.489,14.494,14.494v36.32c0,7.49-5.682,13.652-12.971,14.413v21.963l-29.379-21.882h-38.579
								c-8.005,0-14.494-6.489-14.494-14.494v-36.32C353.18,93.65,359.669,87.161,367.674,87.161z"/>
							<g>
								<g>
									<g>
										<path style="fill:#231F20;" d="M362.748,101.229c8.507,0,17.014,0,25.521,0c13.535,0,27.07,0,40.605,0
											c3.074,0,6.149,0,9.223,0c1.609,0,1.611-2.5,0-2.5c-8.507,0-17.014,0-25.521,0c-13.535,0-27.07,0-40.605,0
											c-3.074,0-6.149,0-9.223,0C361.14,98.729,361.137,101.229,362.748,101.229L362.748,101.229z"/>
									</g>
								</g>
								<g>
									<g>
										<path style="fill:#231F20;" d="M362.748,110.771c8.507,0,17.014,0,25.521,0c13.535,0,27.07,0,40.605,0
											c3.074,0,6.149,0,9.223,0c1.609,0,1.611-2.5,0-2.5c-8.507,0-17.014,0-25.521,0c-13.535,0-27.07,0-40.605,0
											c-3.074,0-6.149,0-9.223,0C361.14,108.271,361.137,110.771,362.748,110.771L362.748,110.771z"/>
									</g>
								</g>
								<g>
									<g>
										<path style="fill:#231F20;" d="M362.748,120.313c8.507,0,17.014,0,25.521,0c13.535,0,27.07,0,40.605,0
											c3.074,0,6.149,0,9.223,0c1.609,0,1.611-2.5,0-2.5c-8.507,0-17.014,0-25.521,0c-13.535,0-27.07,0-40.605,0
											c-3.074,0-6.149,0-9.223,0C361.14,117.813,361.137,120.313,362.748,120.313L362.748,120.313z"/>
									</g>
								</g>
								<g>
									<g>
										<path style="fill:#231F20;" d="M362.748,129.855c8.507,0,17.014,0,25.521,0c13.535,0,27.07,0,40.605,0
											c3.074,0,6.149,0,9.223,0c1.609,0,1.611-2.5,0-2.5c-8.507,0-17.014,0-25.521,0c-13.535,0-27.07,0-40.605,0
											c-3.074,0-6.149,0-9.223,0C361.14,127.355,361.137,129.855,362.748,129.855L362.748,129.855z"/>
									</g>
								</g>
								<g>
									<g>
										<path style="fill:#231F20;" d="M362.748,139.397c7.582,0,15.164,0,22.747,0c1.102,0,2.205,0,3.307,0
											c1.609,0,1.611-2.5,0-2.5c-7.582,0-15.164,0-22.747,0c-1.102,0-2.205,0-3.307,0
											C361.14,136.897,361.137,139.397,362.748,139.397L362.748,139.397z"/>
									</g>
								</g>
							</g>
						</g>
					</g>
				</g>
			</g>
		</g>
	</g>
</g>
</svg>
